<svg xmlns="http://www.w3.org/2000/svg" viewBox="0 0 184 44">
    <g id="citadel_logo_original" data-name="citadel logo_original" transform="translate(-8.9 -33)">
        <path id="Path_4576" data-name="Path 4576"
            d="M174.1,67.9a.563.563,0,0,1,.6.7l-1.4,7.1a.876.876,0,0,1-.9.7h-7.5a.563.563,0,0,1-.6-.7l1.4-7.1a.876.876,0,0,1,.9-.7h7.5Z"
            transform="translate(0.08 0.2)" fill="#fab820"></path>
        <path id="Path_4577" data-name="Path 4577"
            d="M161,67.9a.563.563,0,0,1,.6.7l-1.4,7.1a.876.876,0,0,1-.9.7h-7.5a.563.563,0,0,1-.6-.7l1.4-7.1a.876.876,0,0,1,.9-.7H161Z"
            transform="translate(0.066 0.2)" fill="#607c36"></path>
        <path id="Path_4578" data-name="Path 4578"
            d="M187,67.9a.563.563,0,0,1,.6.7l-1.4,7.1a.876.876,0,0,1-.9.7h-7.5a.563.563,0,0,1-.6-.7l1.4-7.1a.876.876,0,0,1,.9-.7H187Z"
            transform="translate(0.08 0.2)" fill="#a31d32"></path>
        <path id="Path_4579" data-name="Path 4579"
            d="M13.1,72.3l-.4,2.3h-.8a2.034,2.034,0,0,1-.5-.1l-.2-.2v-.4l1-5.2H10.1l-1,5.4a1.672,1.672,0,0,0,.1,1.2,1.591,1.591,0,0,0,.9.9,3.506,3.506,0,0,0,1.6.3,5.7,5.7,0,0,0,1.3-.1c.5-.1.9-.2,1.3-.3h.1l.7-3.8Z"
            transform="translate(0 0.2)" fill="#004550"></path>
        <path id="Path_4580" data-name="Path 4580"
            d="M21,69.8a1.628,1.628,0,0,0-.6-.3,4.65,4.65,0,0,0-.9-.3c-.3-.1-.5-.1-.6-.2-.2,0-.2-.1-.2-.1v-.3h-2v.5a1.268,1.268,0,0,0,.1.6c.1.2.2.3.3.5a1.628,1.628,0,0,0,.6.3,1.884,1.884,0,0,0,.8.2c.3.1.5.1.6.2l.2.1v.4c-.5,2.6-.6,3-.6,3a.1.1,0,0,1-.1.1c-.1,0-.1.1-.2.1h-1l.4-2.2H15.9L15.2,76l.2.1,1.2.3h1.3a2.769,2.769,0,0,0,.9-.1c.3-.1.6-.1.8-.3a2.651,2.651,0,0,0,.6-.5,2.092,2.092,0,0,0,.4-.6,20.835,20.835,0,0,0,.7-3.5,1.952,1.952,0,0,0,.1-.7v-.6c-.2,0-.3-.2-.4-.3"
            transform="translate(0 0.2)" fill="#004550"></path>
        <path id="Path_4581" data-name="Path 4581"
            d="M28.1,70.1a1.456,1.456,0,0,0-.6-.9,2.1,2.1,0,0,0-1.1-.4,8.874,8.874,0,0,0-3.6.1h-.2l-.2,1.8h.3a9.233,9.233,0,0,1,2.8-.1c.2.1.4.1.5.3q.15.15,0,.6v.2c-.5,0-1-.1-1.6-.1a5.136,5.136,0,0,0-1.6.2,1.779,1.779,0,0,0-.8.7,3.337,3.337,0,0,0-.5,1.2l-.1.3a1.387,1.387,0,0,0,0,.9,2.01,2.01,0,0,0,.4.8,3.49,3.49,0,0,0,.9.6,5.212,5.212,0,0,0,1.4.2H25a4.438,4.438,0,0,0,1.3-.2,2.178,2.178,0,0,0,.9-.7,1.777,1.777,0,0,0,.4-1l.6-3.1a5.313,5.313,0,0,0-.1-1.4m-2.5,3.4-.1.8c0,.1-.1.2-.1.3a.367.367,0,0,1-.3.1h-.8c-.3,0-.5,0-.5-.1a.215.215,0,0,1-.2-.2v-.5l.1-.3c0-.1.1-.2.1-.3a1.013,1.013,0,0,1,.7-.2h.2a6.314,6.314,0,0,0,.9.4"
            transform="translate(0 0.2)" fill="#004550"></path>
        <path id="Path_4582" data-name="Path 4582"
            d="M34.7,70.1a1.456,1.456,0,0,0-.6-.9,2.1,2.1,0,0,0-1.1-.4,8.874,8.874,0,0,0-3.6.1h-.2L29,70.6h.3a3.751,3.751,0,0,1,1-.1l-.2.8h2l.1-.7c.1.1.2.1.3.2s.1.3,0,.6v.2c-.5,0-1-.1-1.6-.1a5.136,5.136,0,0,0-1.6.2,1.779,1.779,0,0,0-.8.7,2.144,2.144,0,0,0-.4,1.2L28,74a1.387,1.387,0,0,0,0,.9,2.01,2.01,0,0,0,.4.8,3.49,3.49,0,0,0,.9.6,5.212,5.212,0,0,0,1.4.2h.9a4.438,4.438,0,0,0,1.3-.2,2.178,2.178,0,0,0,.9-.7,1.777,1.777,0,0,0,.4-1l.6-3.1a5.722,5.722,0,0,0-.1-1.4m-2.5,3.4-.1.8c0,.1-.1.2-.1.3a.367.367,0,0,1-.3.1h-.8c-.3,0-.5,0-.5-.1-.1-.1-.2-.1-.2-.2v-.5l.1-.3a.349.349,0,0,1,.1-.2,1.013,1.013,0,0,1,.7-.2h.2a9.438,9.438,0,0,1,.9.3"
            transform="translate(0 0.2)" fill="#004550"></path>
        <path id="Path_4583" data-name="Path 4583"
            d="M40.6,69.8a1.419,1.419,0,0,0-.8-.9,3.506,3.506,0,0,0-1.6-.3,3.75,3.75,0,0,0-1.1.1,5.16,5.16,0,0,0-1.1.2h-.2v1.9h.3c.2,0,.4-.1.7-.1a1.952,1.952,0,0,0,.7-.1h.6a.749.749,0,0,1,.5.1c.1,0,.1.1.1.2v.5l-.5,2.4c0,.2-.1.3-.2.5l-.3.3c-.1.1-.3.1-.6.1h-.6a1.268,1.268,0,0,1-.6-.1c-.2,0-.4-.1-.6-.1h-.2l-.6,1.9.2.1c.4.1.7.1,1.1.2.3,0,.7.1,1.1.1a4.309,4.309,0,0,0,1.7-.3,2.445,2.445,0,0,0,1.1-.9,2.106,2.106,0,0,0,.5-1.3l.5-3a2.376,2.376,0,0,0-.1-1.5"
            transform="translate(0 0.2)" fill="#004550"></path>
        <path id="Path_4584" data-name="Path 4584"
            d="M47,72.4a1.057,1.057,0,0,0-.6-.7,5.136,5.136,0,0,0-1.6-.2,7.569,7.569,0,0,0-1.5.1v-.1a.6.6,0,0,1,.3-.6,3.33,3.33,0,0,1,.6-.3,9.162,9.162,0,0,1,2.8.1h.2l.4-1.8h-.2a10.472,10.472,0,0,0-3.5-.1,3.373,3.373,0,0,0-1.2.4,1.962,1.962,0,0,0-.9.9,5.023,5.023,0,0,0-.5,1.3l-.6,3.1a1.147,1.147,0,0,0,.1,1,1.208,1.208,0,0,0,.7.7,2.363,2.363,0,0,0,1.3.2h.9a5.9,5.9,0,0,0,1.4-.2,3.128,3.128,0,0,0,1-.5,2.7,2.7,0,0,0,.7-.8,1.613,1.613,0,0,0,.3-.9l.1-.5c-.1-.4-.1-.8-.2-1.1m-2.1,1.1-.1.3c-.1.3-.1.5-.2.5-.1.1-.2.2-.3.2a1.268,1.268,0,0,1-.6.1h-.8c-.1,0-.1-.1-.2-.1v-.2l.2-.8a3.5,3.5,0,0,1,1.2-.3c.7,0,.8.1.8.1v.2"
            transform="translate(0.014 0.2)" fill="#004550"></path>
        <path id="Path_4585" data-name="Path 4585"
            d="M53.2,69.8a1.419,1.419,0,0,0-.8-.9,3.506,3.506,0,0,0-1.6-.3,3.75,3.75,0,0,0-1.1.1,5.16,5.16,0,0,0-1.1.2h-.2v1.9h.3c.2,0,.4-.1.7-.1a1.952,1.952,0,0,0,.7-.1h.6c.3,0,.4,0,.5.1.1,0,.1.1.1.2v.5l-.5,2.4c0,.2-.1.3-.2.5l-.3.3a3.42,3.42,0,0,1-1.1.1,1.268,1.268,0,0,1-.6-.1c-.2,0-.4-.1-.6-.1h-.2L47,76.2l.2.1c.4.1.7.1,1.1.2.3,0,.7.1,1.1.1a4.309,4.309,0,0,0,1.7-.3,2.445,2.445,0,0,0,1.1-.9,2.106,2.106,0,0,0,.5-1.3l.5-3a1.928,1.928,0,0,0,0-1.3"
            transform="translate(0.017 0.2)" fill="#004550"></path>
        <path id="Path_4586" data-name="Path 4586"
            d="M59.1,71.6a3.49,3.49,0,0,0-.9-.6h-.1a4.592,4.592,0,0,0,.1-1c0-.2-.2-.4-.4-.6a3.933,3.933,0,0,1-.6-.2,1.577,1.577,0,0,0-.4-.1.438.438,0,0,1-.1-.3v-.3H54.6v.2a1.273,1.273,0,0,0,.5,1.5c.1.1.3.1.5.2.1,0,.1,0,.2.1v.4a4.331,4.331,0,0,0-.5.1,2.384,2.384,0,0,0-1.1.6,2.7,2.7,0,0,0-.7.8,1.613,1.613,0,0,0-.3.9l.1.7a1.388,1.388,0,0,0,0,.9,2.01,2.01,0,0,0,.4.8,3.49,3.49,0,0,0,.9.6,5.212,5.212,0,0,0,1.4.2,5.9,5.9,0,0,0,1.4-.2,1.7,1.7,0,0,0,1-.6,2.7,2.7,0,0,0,.7-.8,1.613,1.613,0,0,0,.3-.9l.1-.7a1.388,1.388,0,0,0,0-.9,1.033,1.033,0,0,0-.4-.8m-1.7,1.8-.1.5a.85.85,0,0,1-.3.5,1.884,1.884,0,0,1-.8.2,1.166,1.166,0,0,1-.7-.2.749.749,0,0,1-.1-.5l.1-.5a.55.55,0,0,1,.3-.5,1.884,1.884,0,0,1,.8-.2,1.166,1.166,0,0,1,.7.2.4.4,0,0,1,.1.5"
            transform="translate(0.02 0.2)" fill="#004550"></path>
        <path id="Path_4587" data-name="Path 4587"
            d="M64.5,74.5a1.268,1.268,0,0,0-.6.1H62.8a2.034,2.034,0,0,1-.5-.1l-.2-.2v-.4l.4-2.4c0-.2.1-.3.2-.5l.3-.3c.1-.1.3-.1.6-.1h.7L64,72.9h2l.7-3.8-.1-.1-1.2-.3a5.7,5.7,0,0,0-1.3-.1,3.808,3.808,0,0,0-1.6.3,2.421,2.421,0,0,0-1.1.8,3.1,3.1,0,0,0-.6,1.3l-.5,3a1.9,1.9,0,0,0,.1,1.3,1.591,1.591,0,0,0,.9.9,3.506,3.506,0,0,0,1.6.3h.9c.3,0,.6-.1.8-.1.3,0,.5-.1.7-.1h.2l.1-1.9h-.3a1.949,1.949,0,0,0-.8.1"
            transform="translate(0.023 0.2)" fill="#004550"></path>
        <path id="Path_4588" data-name="Path 4588"
            d="M75.2,68.9a3.506,3.506,0,0,0-1.6-.3,5.7,5.7,0,0,0-1.3.1,3.553,3.553,0,0,0-1,.2,3.178,3.178,0,0,0-1.4-.2,5.7,5.7,0,0,0-1.3.1,4.961,4.961,0,0,0-1.3.3h-.1l-1.4,7.5h2l1.1-5.9h.8a2.034,2.034,0,0,1,.5.1l.2.2v.3l-.5,2.6v.3H72l.6-3.5h.8a2.034,2.034,0,0,1,.5.1l.2.2v.4l-1,5.2h2.1l1-5.4a1.9,1.9,0,0,0-.1-1.3,1.5,1.5,0,0,0-.9-1"
            transform="translate(0.026 0.2)" fill="#004550"></path>
        <path id="Path_4589" data-name="Path 4589"
            d="M86.8,70.1a1.456,1.456,0,0,0-.6-.9,2.1,2.1,0,0,0-1.1-.4,8.874,8.874,0,0,0-3.6.1h-.2l-.2,1.8h.3a9.233,9.233,0,0,1,2.8-.1c.2.1.4.1.5.3q.15.15,0,.6v.2c-.5,0-1-.1-1.6-.1a5.136,5.136,0,0,0-1.6.2,1.779,1.779,0,0,0-.8.7,3.337,3.337,0,0,0-.5,1.2l-.1.3a1.388,1.388,0,0,0,0,.9,2.01,2.01,0,0,0,.4.8,3.49,3.49,0,0,0,.9.6,5.212,5.212,0,0,0,1.4.2h.9a4.438,4.438,0,0,0,1.3-.2,2.178,2.178,0,0,0,.9-.7,1.777,1.777,0,0,0,.4-1l.6-3.1a5.314,5.314,0,0,0-.1-1.4m-2.5,3.4-.1.8c0,.1-.1.2-.1.3a.367.367,0,0,1-.3.1H83c-.3,0-.5,0-.5-.1a.215.215,0,0,1-.2-.2v-.5l.1-.3c0-.1.1-.2.1-.3a1.013,1.013,0,0,1,.7-.2h.2a6.314,6.314,0,0,0,.9.4"
            transform="translate(0.032 0.2)" fill="#004550"></path>
        <path id="Path_4590" data-name="Path 4590"
            d="M92.2,69.8a1.628,1.628,0,0,0-.6-.3,4.649,4.649,0,0,0-.9-.3c-.3-.1-.5-.1-.6-.2-.2,0-.2-.1-.2-.1v-.3h-2v.5a1.268,1.268,0,0,0,.1.6,2.186,2.186,0,0,0,.3.5,1.628,1.628,0,0,0,.6.3,1.884,1.884,0,0,0,.8.2c.3.1.5.1.6.2l.2.1v.4a25.986,25.986,0,0,1-.6,3,.1.1,0,0,1-.1.1.349.349,0,0,1-.2.1h-1l.4-2.2H87L86.3,76l.2.1,1.2.3h1.4a2.769,2.769,0,0,0,.9-.1c.3-.1.6-.1.8-.3a2.651,2.651,0,0,0,.6-.5,2.092,2.092,0,0,0,.4-.6,25.127,25.127,0,0,0,.7-3.5,1.952,1.952,0,0,0,.1-.7v-.6c-.1,0-.2-.2-.4-.3"
            transform="translate(0.035 0.2)" fill="#004550"></path>
        <path id="Path_4591" data-name="Path 4591"
            d="M96.7,72.3l-.4,2.3h-.8a2.034,2.034,0,0,1-.5-.1l-.2-.2v-.4l1-5.2H93.7l-1,5.4a1.9,1.9,0,0,0,.1,1.3,1.591,1.591,0,0,0,.9.9,3.506,3.506,0,0,0,1.6.3,5.7,5.7,0,0,0,1.3-.1c.5-.1.9-.2,1.3-.3H98l.7-3.8h-2Z"
            transform="translate(0.038 0.2)" fill="#004550"></path>
        <path id="Path_4592" data-name="Path 4592"
            d="M104.5,69.8a1.628,1.628,0,0,0-.6-.3,4.649,4.649,0,0,0-.9-.3c-.3-.1-.5-.1-.6-.2-.2,0-.2-.1-.2-.1v-.3h-2v.5a1.268,1.268,0,0,0,.1.6c.1.2.2.3.3.5a1.628,1.628,0,0,0,.6.3,1.884,1.884,0,0,0,.8.2c.3.1.5.1.6.2l.2.1v.4c-.5,2.6-.6,3-.6,3a.1.1,0,0,1-.1.1c-.1,0-.1.1-.2.1h-1l.4-2.2H99.4L98.7,76l.2.1,1.2.3h1.3a2.769,2.769,0,0,0,.9-.1c.3-.1.6-.1.8-.3a2.651,2.651,0,0,0,.6-.5,2.092,2.092,0,0,0,.4-.6,20.836,20.836,0,0,0,.7-3.5,2.252,2.252,0,0,0,.1-.7v-.6c-.1,0-.2-.2-.4-.3"
            transform="translate(0.041 0.2)" fill="#004550"></path>
        <path id="Path_4593" data-name="Path 4593"
            d="M109.4,74.5a1.268,1.268,0,0,0-.6.1h-1.1a2.034,2.034,0,0,1-.5-.1l-.2-.2v-.4l.4-2.4c0-.2.1-.3.2-.5l.3-.3c.1-.1.3-.1.6-.1h.7l-.4,2.3h2l.7-3.8-.2-.1-1.2-.3a5.7,5.7,0,0,0-1.3-.1,3.808,3.808,0,0,0-1.6.3,2.012,2.012,0,0,0-1.1.9,3.1,3.1,0,0,0-.6,1.3l-.5,3a1.9,1.9,0,0,0,.1,1.3,1.591,1.591,0,0,0,.9.9,3.506,3.506,0,0,0,1.6.3h.9c.3,0,.6-.1.8-.1.3,0,.5-.1.7-.1h.2l.1-1.9H110a.637.637,0,0,0-.6,0"
            transform="translate(0.044 0.2)" fill="#004550"></path>
        <path id="Path_4594" data-name="Path 4594"
            d="M116.8,69.8a1.419,1.419,0,0,0-.8-.9,3.506,3.506,0,0,0-1.6-.3,3.75,3.75,0,0,0-1.1.1,5.16,5.16,0,0,0-1.1.2H112v1.9h.3c.2,0,.4-.1.7-.1a1.952,1.952,0,0,0,.7-.1h.6c.3,0,.4,0,.5.1.1,0,.1.1.1.2v.5l-.5,2.4c0,.2-.1.3-.2.5l-.3.3a3.42,3.42,0,0,1-1.1.1,1.268,1.268,0,0,1-.6-.1c-.2,0-.4-.1-.6-.1h-.2l-.6,1.9.2.1c.4.1.7.1,1.1.2.3,0,.7.1,1.1.1a4.309,4.309,0,0,0,1.7-.3,2.445,2.445,0,0,0,1.1-.9,2.106,2.106,0,0,0,.5-1.3l.5-3a3.2,3.2,0,0,0-.2-1.5"
            transform="translate(0.046 0.2)" fill="#004550"></path>
        <path id="Path_4595" data-name="Path 4595"
            d="M122.8,71.6a3.49,3.49,0,0,0-.9-.6h-.1a4.592,4.592,0,0,0,.1-1c0-.3-.2-.4-.4-.6a3.933,3.933,0,0,1-.6-.2,1.577,1.577,0,0,0-.4-.1.438.438,0,0,1-.1-.3v-.3h-2.1v.2a1.273,1.273,0,0,0,.5,1.5c.1.1.3.1.5.2.1,0,.1,0,.2.1v.4a4.331,4.331,0,0,0-.5.1,2.384,2.384,0,0,0-1.1.6,2.7,2.7,0,0,0-.7.8,1.613,1.613,0,0,0-.3.9l-.1.7a1.388,1.388,0,0,0,0,.9,2.01,2.01,0,0,0,.4.8,3.49,3.49,0,0,0,.9.6,5.212,5.212,0,0,0,1.4.2,5.9,5.9,0,0,0,1.4-.2,2.384,2.384,0,0,0,1.1-.6,2.7,2.7,0,0,0,.7-.8,1.613,1.613,0,0,0,.3-.9l.1-.7a1.388,1.388,0,0,0,0-.9,1.33,1.33,0,0,0-.3-.8m-1.7,1.8-.1.5a.85.85,0,0,1-.3.5,1.884,1.884,0,0,1-.8.2,1.165,1.165,0,0,1-.7-.2.749.749,0,0,1-.1-.5l.1-.5a.85.85,0,0,1,.3-.5,1.884,1.884,0,0,1,.8-.2,1.165,1.165,0,0,1,.7.2.749.749,0,0,1,.1.5"
            transform="translate(0.049 0.2)" fill="#004550"></path>
        <path id="Path_4596" data-name="Path 4596"
            d="M130.5,70.2a2.01,2.01,0,0,0-.4-.8,3.49,3.49,0,0,0-.9-.6,5,5,0,0,0-2.8,0,3.7,3.7,0,0,0-1.1.5,2.7,2.7,0,0,0-.7.8,1.613,1.613,0,0,0-.3.9l-1,5.5h2.1l1-5.2a.85.85,0,0,1,.3-.5,1.884,1.884,0,0,1,.8-.2,1.165,1.165,0,0,1,.7.2.749.749,0,0,1,.1.5l-1,5.3h2.1l1-5.4a3.752,3.752,0,0,0,.1-1"
            transform="translate(0.052 0.2)" fill="#004550"></path>
        <path id="Path_4597" data-name="Path 4597"
            d="M145.56,44.476h0c1.1-5.335-2.3-9.664-7.6-9.664h-6a.851.851,0,0,0-.8.7l-1,4.631a.851.851,0,0,0,.8,1.007h4.4a2.721,2.721,0,0,1,2.7,3.423h0l-1.9,8.959a4.37,4.37,0,0,1-4.1,3.423v0h-4.8a.851.851,0,0,0-.8.7l-1,4.631a.851.851,0,0,0,.8,1.007h5.7c5.3,0,10.5-4.329,11.705-9.664l1.9-9.16ZM95.238,35.718a.819.819,0,0,0-.9-.805h-5.9a.775.775,0,0,0-.8.7c-1.6,9.865,8.8,8.154,8,11.979l-1.3,6.04a4.37,4.37,0,0,1-4.1,3.423,2.721,2.721,0,0,1-2.7-3.423l.2-.906a.851.851,0,0,0-.8-1.007h-5.8a.851.851,0,0,0-.8.7l-.3,1.309c-1,5.134,2.4,9.462,7.7,9.462h2.5c5.3,0,10.5-4.329,11.705-9.664l1.3-6.04h0c2.1-10.268-8.1-6.845-8-11.778M168.47,45.784l.3-1.309c1.1-5.335-2.3-9.664-7.6-9.664h-2.5c-5.3,0-10.5,4.329-11.705,9.664l-1.9,8.959c-1.1,5.335,2.3,9.664,7.6,9.664.4,0,6-.1,6-.1a.851.851,0,0,0,.8-.7l1-4.53a.851.851,0,0,0-.8-1.007h-4.4a2.721,2.721,0,0,1-2.7-3.423l1.9-8.959a4.37,4.37,0,0,1,4.1-3.423,2.721,2.721,0,0,1,2.7,3.423l-.2.906a.851.851,0,0,0,.8,1.007h5.8a.547.547,0,0,0,.8-.5m-55.424-1.309h0a4.351,4.351,0,0,1,4-3.423h.1c4.2,0,2.9,6.241-1.3,6.141h-3.4Zm-1.8,9.06h4.6a12.4,12.4,0,0,0,11.4-8.959l.1-.7c.6-5.033-2.7-8.959-7.7-8.959h-2.6a12.378,12.378,0,0,0-11.605,9.664l-1.8,8.959h0c-1.1,5.335,2.4,9.664,7.7,9.664.3,0,4.4-.1,6-.1a.851.851,0,0,0,.8-.7l.9-4.53a.851.851,0,0,0-.8-1.007h-4.4a2.583,2.583,0,0,1-2.6-3.322M30.91,42.362a12.216,12.216,0,0,0,3.8-6.443l.2-1.007h-7.6l-.2,1.007a4.486,4.486,0,0,1-3.2,3.322,2.19,2.19,0,0,0-.8.1h0l-1.3,6.241h0c.3,0,.5.1.8.1a2.68,2.68,0,0,1,1.9,3.221l-1,4.731a4.153,4.153,0,0,1-1.5,2.416,4.2,4.2,0,0,1-2.6,1.007,2.721,2.721,0,0,1-2.7-3.423l1.7-8.154c1-4.53,2.2-8.355,3.8-10.57H14.6c-1.6,2.215-2.8,6.04-3.8,10.57L9.1,53.636a15.22,15.22,0,0,0-.2,2.013,7.431,7.431,0,0,0,7.8,7.65h2.5a11.878,11.878,0,0,0,7.4-2.819,13.14,13.14,0,0,0,4.3-6.845h0l1-4.731h0l.2-1.309a6.994,6.994,0,0,0-1.2-5.235m49.422.1a7.412,7.412,0,0,0-7.2-7.65l.2-.805a.851.851,0,0,0-.8-1.007h-2.1a.851.851,0,0,0-.8.7l-.2,1.107-1.5,7.349-.5,2.315a.851.851,0,0,0,.8,1.007h2.1a.851.851,0,0,0,.8-.7l.6-3.02a2.983,2.983,0,0,1,.9,2.819l-1.9,8.959a4.153,4.153,0,0,1-1.5,2.416,4.2,4.2,0,0,1-2.6,1.007,2.721,2.721,0,0,1-2.7-3.423l1.7-8.154h0l2.2-10.57h-7.5l-2.2,10.57-1.7,8.154a15.221,15.221,0,0,0-.2,2.013,7.431,7.431,0,0,0,7.8,7.65h2.5A12.584,12.584,0,0,0,78.23,53.536l1.9-8.959a7.582,7.582,0,0,0,.2-2.114m-23.71,2.013c1.1-5.335-2.3-9.664-7.6-9.664h-2.5c-5.3,0-10.5,4.329-11.705,9.664l-1.7,8.154c-.9,4.429-1.2,7.952-.2,10.167a.792.792,0,0,0,.8.5h5.6a.887.887,0,0,0,.8-1.208c-.8-2.114-.3-5.033.6-9.462h0l1.7-8.154h0a4.37,4.37,0,0,1,4.1-3.423,2.721,2.721,0,0,1,2.7,3.423l-1.7,8.154h0a38.036,38.036,0,0,1-3,9.362c-.5.5-.1,1.208.6,1.208h5.6a.669.669,0,0,0,.7-.4c1.5-2.315,2.6-5.939,3.5-10.268Zm113.55,2.617-.1.2-.9,4.731-.1.6a.371.371,0,0,1-.1.3l-1.9,9.462c-.1.4.1.6.5.6h6.3a.872.872,0,0,0,.8-.6l1.9-9.563v-.2h0l1.7-8.154h0a4.37,4.37,0,0,1,4.1-3.423,3.208,3.208,0,0,1,2.1,1.007.955.955,0,0,0,.9.2l6.1-2.215a.89.89,0,0,0,.5-1.208,7.5,7.5,0,0,0-7-4.127h-2.5c-5.3,0-10.5,4.329-11.705,9.664h0Zm15.407-2.013h0c-.3.1-.7.3-.8.6l-3.3,16.71c-.1.4.1.6.5.6h6.3a.872.872,0,0,0,.8-.6l3.8-19.126c.1-.4-.2-.7-.5-.6Z"
            transform="translate(0 0)" fill="#004550" fill-rule="evenodd"></path>
    </g>
</svg>